<svg viewBox="0 0 880 84" xmlns="http://www.w3.org/2000/svg" font-family="'Fira Code', 'JetBrains Mono', ui-monospace, monospace">
  <defs>
    <filter id="wglow" x="-30%" y="-300%" width="160%" height="700%">
      <feGaussianBlur stdDeviation="3.4" result="blur"/>
      <feMerge>
        <feMergeNode in="blur"/>
        <feMergeNode in="blur"/>
        <feMergeNode in="SourceGraphic"/>
      </feMerge>
    </filter>
  </defs>
  <path d="M 0.0,42.0 L 9.8,46.8 L 19.6,51.1 L 29.3,54.4 L 39.1,56.2 L 48.9,56.4 L 58.7,54.9 L 68.4,52.0 L 78.2,47.9 L 88.0,43.2 L 97.8,38.3 L 107.6,33.8 L 117.3,30.3 L 127.1,28.1 L 136.9,27.5 L 146.7,28.6 L 156.4,31.2 L 166.2,35.0 L 176.0,39.6 L 185.8,44.6 L 195.6,49.2 L 205.3,53.0 L 215.1,55.5 L 224.9,56.5 L 234.7,55.8 L 244.4,53.6 L 254.2,50.0 L 264.0,45.5 L 273.8,40.6 L 283.6,35.9 L 293.3,31.9 L 303.1,29.0 L 312.9,27.6 L 322.7,27.9 L 332.4,29.7 L 342.2,33.0 L 352.0,37.4 L 361.8,42.2 L 371.6,47.0 L 381.3,51.3 L 391.1,54.5 L 400.9,56.2 L 410.7,56.4 L 420.4,54.8 L 430.2,51.9 L 440.0,47.8 L 449.8,43.0 L 459.6,38.1 L 469.3,33.7 L 479.1,30.2 L 488.9,28.1 L 498.7,27.5 L 508.4,28.7 L 518.2,31.3 L 528.0,35.2 L 537.8,39.8 L 547.6,44.7 L 557.3,49.3 L 567.1,53.1 L 576.9,55.6 L 586.7,56.5 L 596.4,55.8 L 606.2,53.5 L 616.0,49.8 L 625.8,45.3 L 635.6,40.4 L 645.3,35.7 L 655.1,31.7 L 664.9,28.9 L 674.7,27.6 L 684.4,27.9 L 694.2,29.9 L 704.0,33.2 L 713.8,37.5 L 723.6,42.4 L 733.3,47.2 L 743.1,51.4 L 752.9,54.6 L 762.7,56.3 L 772.4,56.3 L 782.2,54.7 L 792.0,51.7 L 801.8,47.6 L 811.6,42.8 L 821.3,37.9 L 831.1,33.5 L 840.9,30.1 L 850.7,28.0 L 860.4,27.5 L 870.2,28.7 L 880.0,31.4" fill="none" stroke="#00ff00" stroke-width="1.6" opacity="0.32"/>
  <path d="M 0.0,42.0 L 9.8,46.8 L 19.6,51.1 L 29.3,54.4 L 39.1,56.2 L 48.9,56.4 L 58.7,54.9 L 68.4,52.0 L 78.2,47.9 L 88.0,43.2 L 97.8,38.3 L 107.6,33.8 L 117.3,30.3 L 127.1,28.1 L 136.9,27.5 L 146.7,28.6 L 156.4,31.2 L 166.2,35.0 L 176.0,39.6 L 185.8,44.6 L 195.6,49.2 L 205.3,53.0 L 215.1,55.5 L 224.9,56.5 L 234.7,55.8 L 244.4,53.6 L 254.2,50.0 L 264.0,45.5 L 273.8,40.6 L 283.6,35.9 L 293.3,31.9 L 303.1,29.0 L 312.9,27.6 L 322.7,27.9 L 332.4,29.7 L 342.2,33.0 L 352.0,37.4 L 361.8,42.2 L 371.6,47.0 L 381.3,51.3 L 391.1,54.5 L 400.9,56.2 L 410.7,56.4 L 420.4,54.8 L 430.2,51.9 L 440.0,47.8 L 449.8,43.0 L 459.6,38.1 L 469.3,33.7 L 479.1,30.2 L 488.9,28.1 L 498.7,27.5 L 508.4,28.7 L 518.2,31.3 L 528.0,35.2 L 537.8,39.8 L 547.6,44.7 L 557.3,49.3 L 567.1,53.1 L 576.9,55.6 L 586.7,56.5 L 596.4,55.8 L 606.2,53.5 L 616.0,49.8 L 625.8,45.3 L 635.6,40.4 L 645.3,35.7 L 655.1,31.7 L 664.9,28.9 L 674.7,27.6 L 684.4,27.9 L 694.2,29.9 L 704.0,33.2 L 713.8,37.5 L 723.6,42.4 L 733.3,47.2 L 743.1,51.4 L 752.9,54.6 L 762.7,56.3 L 772.4,56.3 L 782.2,54.7 L 792.0,51.7 L 801.8,47.6 L 811.6,42.8 L 821.3,37.9 L 831.1,33.5 L 840.9,30.1 L 850.7,28.0 L 860.4,27.5 L 870.2,28.7 L 880.0,31.4" fill="none" stroke="#00ff00" stroke-width="2.6" opacity="1" filter="url(#wglow)"
        pathLength="100" stroke-dasharray="22 78">
    <animate attributeName="stroke-dashoffset" from="100" to="0" dur="2.5s" repeatCount="indefinite"/>
  </path>
  <rect x="270.0" y="16" width="340" height="50" rx="10" fill="#0d1117"/>
  <text x="440.0" y="47" text-anchor="middle" font-size="17" font-weight="700" letter-spacing="2.5" fill="#e6edf3">ENGINEERING DEEP DIVES</text>
</svg>
